PathFileType	4	(X/Y/Z)	 s11c0403.trc
DataRate	CameraRate	NumFrames	NumMarkers	Units	OrigDataRate	OrigDataStartFrame	OrigNumFrames
200	200	4	48	mm	200	1501	2000
Frame#	Time	racr			lacr			c7			jug			rlel			rdr			llel			ldr			s2			lic			ric			lasi			rasi			rpsi			lpsi			rgt			lgt			rth1			rth2			rth3			rth4			rlfc			rmfc			rsh1			rsh2			rsh3			rsh4			rlmal			rcal			rtoe			rmt5			lth1			lth2			lth4			lth3			llfc			lmfc			llmal			lcal			lmt5			lsh1			lsh2			lsh3			lsh4			ltoe			SBIKE			LBIKE			RBIKE			
		X1	Y1	Z1	X2	Y2	Z2	X3	Y3	Z3	X4	Y4	Z4	X5	Y5	Z5	X6	Y6	Z6	X7	Y7	Z7	X8	Y8	Z8	X9	Y9	Z9	X10	Y10	Z10	X11	Y11	Z11	X12	Y12	Z12	X13	Y13	Z13	X14	Y14	Z14	X15	Y15	Z15	X16	Y16	Z16	X17	Y17	Z17	X18	Y18	Z18	X19	Y19	Z19	X20	Y20	Z20	X21	Y21	Z21	X22	Y22	Z22	X23	Y23	Z23	X24	Y24	Z24	X25	Y25	Z25	X26	Y26	Z26	X27	Y27	Z27	X28	Y28	Z28	X29	Y29	Z29	X30	Y30	Z30	X31	Y31	Z31	X32	Y32	Z32	X33	Y33	Z33	X34	Y34	Z34	X35	Y35	Z35	X36	Y36	Z36	X37	Y37	Z37	X38	Y38	Z38	X39	Y39	Z39	X40	Y40	Z40	X41	Y41	Z41	X42	Y42	Z42	X43	Y43	Z43	X44	Y44	Z44	X45	Y45	Z45	X46	Y46	Z46	X47	Y47	Z47	X48	Y48	Z48	
1501	7.5050	777.895224	1329.089929	-0.310243	833.197225	1333.346299	-329.702360	794.587663	1432.983143	-168.207177	747.358034	1256.982188	-181.241539	596.691248	1124.154638	102.440668	768.133323	971.547263	-26.478764	628.097973	1190.603773	-537.329266	794.178478	959.542881	-441.203593	192.034441	1330.253534	-253.779772	411.830840	1279.712088	-443.690535	389.379227	1317.183241	-40.863942	425.086836	1209.150586	-406.968483	413.536955	1243.076566	-76.594585	247.016702	1403.416027	-211.238196	249.907554	1387.177313	-301.992431	345.065554	1204.757963	-18.289350	269.725183	1166.425532	-446.173791	449.004447	1102.448404	-23.527185	524.811700	1057.399905	-37.503884	567.896991	980.616418	-47.891291	547.032180	1082.062574	-53.024860	644.122814	903.954613	-68.244747	641.523035	886.148547	-201.646931	553.017549	768.992792	-53.942952	518.096820	688.798117	-69.861489	449.534935	635.391412	-69.971050	539.795870	676.471832	-101.177247	351.048526	526.128288	-81.242661	282.445683	537.913724	-128.656495	526.607365	384.948233	-131.212948	452.450992	389.496616	-61.582516	309.778527	1026.804155	-463.518693	349.348686	951.551671	-460.025884	385.486633	958.515174	-455.908820	345.545383	861.904999	-454.416493	366.936122	725.134568	-435.493811	385.205987	710.302406	-309.155198	89.779848	398.170643	-411.916151	27.417203	406.274424	-376.424395	141.035222	232.583078	-445.161315	283.853452	630.766322	-455.231600	251.321918	553.257488	-440.517344	181.846949	498.630965	-434.166291	278.239693	535.493209	-417.870069	225.877882	182.923710	-378.719009	-170.054496	972.896755	-173.114105	1.194380	83.294570	-460.606210	-15.356925	81.510273	-62.223338	
1502	7.5100	778.510155	1327.956397	-0.374927	832.855368	1334.229394	-329.787335	795.380014	1433.009757	-167.510435	747.467419	1257.778663	-181.207944	595.997207	1124.065415	102.248464	767.497278	971.536130	-25.801086	628.239338	1190.471992	-537.451131	794.936952	958.744677	-442.434073	192.803391	1333.120431	-251.938200	411.611842	1282.674756	-442.889633	389.521219	1317.271140	-39.471034	425.449361	1211.394537	-407.315067	412.775041	1242.803825	-75.002951	248.376988	1405.715202	-208.950149	250.756635	1389.917520	-299.757180	343.560596	1204.562184	-17.732173	270.101903	1168.915478	-445.813483	444.915801	1099.107122	-24.835131	520.106011	1053.629062	-36.270079	561.615958	976.434119	-45.672851	543.083968	1077.873958	-52.244578	637.018688	898.008250	-68.090587	633.849695	879.484282	-199.824270	547.060818	761.167078	-53.626671	513.675310	680.510761	-69.615245	446.163684	625.664884	-69.949694	535.828404	668.463858	-100.815082	350.153018	514.286010	-81.753172	281.637040	523.603643	-129.325500	530.496364	378.970204	-130.659254	456.129266	380.958880	-61.213711	313.383775	1029.230408	-463.528744	354.788074	954.941331	-460.604942	390.715743	962.684145	-456.311796	353.168662	865.204294	-456.029273	376.384731	728.458082	-436.997258	395.046163	713.361721	-310.800667	90.777340	408.710697	-413.448341	29.091608	418.604683	-377.133283	137.207269	241.332343	-445.267149	290.658398	636.223288	-456.892929	256.121280	559.592153	-441.984125	185.265064	506.794100	-435.548387	282.552661	541.178703	-419.302292	220.481165	189.253846	-378.703100	-170.165756	972.864496	-173.049662	1.197681	83.308815	-460.615525	-15.350822	81.505723	-62.241294	
1503	7.5150	779.139121	1327.146360	-0.661908	832.649169	1335.679689	-330.148620	796.303707	1433.361844	-167.208664	747.815168	1258.659533	-181.317984	595.277038	1124.235217	101.873321	766.981331	971.597930	-25.144404	628.354496	1190.306981	-537.491025	795.641767	957.898641	-443.428744	193.375578	1335.928067	-250.262377	411.469413	1285.434304	-442.049172	389.636759	1317.138441	-38.126208	425.781553	1212.893904	-407.797265	411.994627	1242.013208	-73.509563	249.730798	1407.787184	-206.815575	251.731224	1392.423322	-297.712376	341.866653	1203.900832	-17.548264	270.804123	1171.284582	-445.581177	440.906773	1096.201937	-24.401182	515.236635	1049.411773	-35.673193	555.272015	971.451066	-45.150129	538.756531	1073.333422	-51.307289	629.076795	891.009048	-68.085250	626.784994	872.658431	-198.728986	540.672508	752.702496	-53.177393	508.933452	671.351096	-69.348574	442.437611	615.305385	-70.013319	531.417496	659.814195	-100.359523	349.105443	502.019267	-82.360865	280.459490	509.144899	-129.872629	533.732637	372.188547	-130.149237	459.138202	372.059409	-60.796090	317.102537	1031.642001	-463.568330	360.324646	958.306357	-461.201975	396.055603	966.976549	-456.643652	360.903274	868.444895	-457.501378	385.995483	731.704090	-438.398415	404.574797	716.512204	-312.758741	92.279205	419.219837	-414.971873	30.987024	431.039871	-378.505728	133.968402	250.138652	-445.374399	297.872625	641.472940	-458.057823	261.304697	565.931062	-443.155183	189.138143	515.031577	-436.903223	287.225070	547.026554	-420.596382	215.638948	196.145507	-378.470548	-170.086629	972.834750	-173.253778	1.187385	83.313911	-460.620060	-15.360049	81.506353	-62.246893	
1504	7.5200	779.922402	1326.685595	-0.912079	832.471126	1337.489897	-330.616665	797.144201	1433.666707	-167.043819	748.349482	1259.216125	-181.753343	594.820797	1124.627835	101.341905	766.634337	971.784401	-24.397422	628.461975	1190.194543	-537.419435	796.295242	957.045303	-444.148211	194.683639	1337.822444	-249.389392	411.392031	1288.066089	-441.034193	389.686919	1316.468883	-36.511845	425.862280	1214.103963	-407.893373	411.228314	1240.961867	-72.022937	250.841149	1409.303126	-204.835590	252.601870	1394.674216	-295.646250	339.991747	1202.710234	-17.633411	271.637134	1173.475443	-445.323380	436.657175	1092.934810	-23.641389	510.185068	1044.653907	-35.021103	548.610586	965.873077	-44.675582	534.318599	1068.340972	-50.426389	620.904577	883.638464	-67.591581	619.255505	865.056491	-197.574081	533.799899	743.690959	-52.751827	504.008121	661.607902	-69.121801	438.595347	604.218096	-70.039755	526.860198	650.643799	-99.982114	348.234925	489.469289	-82.984144	279.267722	494.611986	-130.523960	536.262464	364.727053	-129.631447	461.528136	362.494919	-60.438327	321.115802	1034.001473	-463.571244	366.001790	961.656330	-461.700385	401.486540	971.082030	-456.944965	368.649728	871.907950	-459.051594	395.573486	735.037964	-439.655899	414.210742	719.789180	-314.086584	94.261607	429.858544	-416.506597	33.374256	443.335921	-379.921991	131.479855	259.238861	-445.585472	305.280778	646.928024	-459.482406	266.768064	572.347917	-444.273131	193.414710	523.317757	-438.226275	292.221390	552.967922	-421.742626	211.083066	202.639187	-377.099836	-170.044961	973.115446	-172.548590	1.165818	83.300411	-460.635748	-15.371936	81.466969	-62.255464	
